<mxfile host="app.diagrams.net" modified="2022-05-03T12:44:43.674Z" agent="5.0 (Windows NT 10.0; Win64; x64) AppleWebKit/537.36 (KHTML, like Gecko) Chrome/101.0.4951.41 Safari/537.36 Edg/101.0.1210.32" etag="Em8TLAOdQn1tePWGKBXr" version="17.5.0" type="github">
  <diagram id="cg2SzLkFmU5wvLVfBe-Z" name="Page-1">
    <mxGraphModel dx="1038" dy="579" grid="1" gridSize="10" guides="1" tooltips="1" connect="1" arrows="1" fold="1" page="1" pageScale="1" pageWidth="850" pageHeight="1100" math="0" shadow="0">
      <root>
        <mxCell id="0" />
        <mxCell id="1" parent="0" />
        <mxCell id="nwrU3dMbxeUqTlsf5lie-3" value="" style="edgeStyle=orthogonalEdgeStyle;rounded=0;orthogonalLoop=1;jettySize=auto;html=1;" edge="1" parent="1" source="nwrU3dMbxeUqTlsf5lie-1" target="nwrU3dMbxeUqTlsf5lie-2">
          <mxGeometry relative="1" as="geometry" />
        </mxCell>
        <mxCell id="nwrU3dMbxeUqTlsf5lie-1" value="start" style="rounded=1;whiteSpace=wrap;html=1;" vertex="1" parent="1">
          <mxGeometry x="80" y="30" width="90" height="20" as="geometry" />
        </mxCell>
        <mxCell id="nwrU3dMbxeUqTlsf5lie-5" value="" style="edgeStyle=orthogonalEdgeStyle;rounded=0;orthogonalLoop=1;jettySize=auto;html=1;" edge="1" parent="1" source="nwrU3dMbxeUqTlsf5lie-2" target="nwrU3dMbxeUqTlsf5lie-4">
          <mxGeometry relative="1" as="geometry" />
        </mxCell>
        <mxCell id="nwrU3dMbxeUqTlsf5lie-2" value="Add the pop ticket&lt;br&gt;increase the serviced agent count&lt;br&gt;decrease the stock count" style="rounded=0;whiteSpace=wrap;html=1;" vertex="1" parent="1">
          <mxGeometry x="67.5" y="100" width="115" height="80" as="geometry" />
        </mxCell>
        <mxCell id="nwrU3dMbxeUqTlsf5lie-7" value="" style="edgeStyle=orthogonalEdgeStyle;rounded=0;orthogonalLoop=1;jettySize=auto;html=1;" edge="1" parent="1" source="nwrU3dMbxeUqTlsf5lie-4" target="nwrU3dMbxeUqTlsf5lie-6">
          <mxGeometry relative="1" as="geometry" />
        </mxCell>
        <mxCell id="nwrU3dMbxeUqTlsf5lie-4" value="IF truck&amp;nbsp;&lt;br&gt;checkStock&lt;br&gt;Status" style="rhombus;whiteSpace=wrap;html=1;" vertex="1" parent="1">
          <mxGeometry x="85" y="210" width="80" height="80" as="geometry" />
        </mxCell>
        <mxCell id="nwrU3dMbxeUqTlsf5lie-9" value="" style="edgeStyle=orthogonalEdgeStyle;rounded=0;orthogonalLoop=1;jettySize=auto;html=1;" edge="1" parent="1" source="nwrU3dMbxeUqTlsf5lie-6" target="nwrU3dMbxeUqTlsf5lie-8">
          <mxGeometry relative="1" as="geometry" />
        </mxCell>
        <mxCell id="nwrU3dMbxeUqTlsf5lie-6" value="call&amp;nbsp;checkStockStatus" style="rounded=1;whiteSpace=wrap;html=1;fillColor=#d5e8d4;gradientColor=#97d077;strokeColor=#82b366;" vertex="1" parent="1">
          <mxGeometry x="65" y="330" width="120" height="60" as="geometry" />
        </mxCell>
        <mxCell id="nwrU3dMbxeUqTlsf5lie-11" value="" style="edgeStyle=orthogonalEdgeStyle;rounded=0;orthogonalLoop=1;jettySize=auto;html=1;" edge="1" parent="1" source="nwrU3dMbxeUqTlsf5lie-8" target="nwrU3dMbxeUqTlsf5lie-10">
          <mxGeometry relative="1" as="geometry" />
        </mxCell>
        <mxCell id="nwrU3dMbxeUqTlsf5lie-8" value="call&amp;nbsp;updateMoneyStats" style="rounded=1;whiteSpace=wrap;html=1;fillColor=#f8cecc;gradientColor=#ea6b66;strokeColor=#b85450;" vertex="1" parent="1">
          <mxGeometry x="65" y="420" width="120" height="60" as="geometry" />
        </mxCell>
        <mxCell id="nwrU3dMbxeUqTlsf5lie-13" style="edgeStyle=orthogonalEdgeStyle;rounded=0;orthogonalLoop=1;jettySize=auto;html=1;entryX=0.5;entryY=0;entryDx=0;entryDy=0;" edge="1" parent="1" source="nwrU3dMbxeUqTlsf5lie-10" target="nwrU3dMbxeUqTlsf5lie-12">
          <mxGeometry relative="1" as="geometry" />
        </mxCell>
        <mxCell id="nwrU3dMbxeUqTlsf5lie-10" value="call&amp;nbsp;updatePeople&lt;br&gt;Count" style="rounded=1;whiteSpace=wrap;html=1;fillColor=#f8cecc;gradientColor=#ea6b66;strokeColor=#b85450;" vertex="1" parent="1">
          <mxGeometry x="67.5" y="510" width="120" height="60" as="geometry" />
        </mxCell>
        <mxCell id="nwrU3dMbxeUqTlsf5lie-17" value="" style="edgeStyle=orthogonalEdgeStyle;rounded=0;orthogonalLoop=1;jettySize=auto;html=1;" edge="1" parent="1" source="nwrU3dMbxeUqTlsf5lie-12" target="nwrU3dMbxeUqTlsf5lie-16">
          <mxGeometry relative="1" as="geometry" />
        </mxCell>
        <mxCell id="nwrU3dMbxeUqTlsf5lie-12" value="IF stock &amp;lt;= penalty stock" style="rhombus;whiteSpace=wrap;html=1;" vertex="1" parent="1">
          <mxGeometry x="240" y="50" width="80" height="80" as="geometry" />
        </mxCell>
        <mxCell id="nwrU3dMbxeUqTlsf5lie-20" value="" style="edgeStyle=orthogonalEdgeStyle;rounded=0;orthogonalLoop=1;jettySize=auto;html=1;" edge="1" parent="1" source="nwrU3dMbxeUqTlsf5lie-16" target="nwrU3dMbxeUqTlsf5lie-19">
          <mxGeometry relative="1" as="geometry" />
        </mxCell>
        <mxCell id="nwrU3dMbxeUqTlsf5lie-16" value="call setStockValuePenalty" style="rounded=1;whiteSpace=wrap;html=1;fillColor=#f8cecc;gradientColor=#ea6b66;strokeColor=#b85450;" vertex="1" parent="1">
          <mxGeometry x="230" y="170" width="120" height="60" as="geometry" />
        </mxCell>
        <mxCell id="nwrU3dMbxeUqTlsf5lie-22" value="" style="edgeStyle=orthogonalEdgeStyle;rounded=0;orthogonalLoop=1;jettySize=auto;html=1;" edge="1" parent="1" source="nwrU3dMbxeUqTlsf5lie-19" target="nwrU3dMbxeUqTlsf5lie-21">
          <mxGeometry relative="1" as="geometry" />
        </mxCell>
        <mxCell id="nwrU3dMbxeUqTlsf5lie-19" value="initialize the&amp;nbsp;animationTrigger" style="rounded=0;whiteSpace=wrap;html=1;" vertex="1" parent="1">
          <mxGeometry x="230" y="270" width="120" height="60" as="geometry" />
        </mxCell>
        <mxCell id="nwrU3dMbxeUqTlsf5lie-24" value="yes" style="edgeStyle=orthogonalEdgeStyle;rounded=0;orthogonalLoop=1;jettySize=auto;html=1;" edge="1" parent="1" source="nwrU3dMbxeUqTlsf5lie-21" target="nwrU3dMbxeUqTlsf5lie-23">
          <mxGeometry relative="1" as="geometry" />
        </mxCell>
        <mxCell id="nwrU3dMbxeUqTlsf5lie-28" value="NO" style="edgeStyle=orthogonalEdgeStyle;rounded=0;orthogonalLoop=1;jettySize=auto;html=1;" edge="1" parent="1" source="nwrU3dMbxeUqTlsf5lie-21" target="nwrU3dMbxeUqTlsf5lie-27">
          <mxGeometry relative="1" as="geometry">
            <Array as="points">
              <mxPoint x="290" y="470" />
              <mxPoint x="290" y="470" />
            </Array>
          </mxGeometry>
        </mxCell>
        <mxCell id="nwrU3dMbxeUqTlsf5lie-21" value="IF truck coins &amp;gt;= 1000" style="rhombus;whiteSpace=wrap;html=1;rounded=0;" vertex="1" parent="1">
          <mxGeometry x="250" y="370" width="80" height="80" as="geometry" />
        </mxCell>
        <mxCell id="nwrU3dMbxeUqTlsf5lie-23" value="set anim trigger for 1000" style="whiteSpace=wrap;html=1;rounded=0;" vertex="1" parent="1">
          <mxGeometry x="390" y="380" width="120" height="60" as="geometry" />
        </mxCell>
        <mxCell id="nwrU3dMbxeUqTlsf5lie-30" value="YES" style="edgeStyle=orthogonalEdgeStyle;rounded=0;orthogonalLoop=1;jettySize=auto;html=1;" edge="1" parent="1" source="nwrU3dMbxeUqTlsf5lie-27" target="nwrU3dMbxeUqTlsf5lie-29">
          <mxGeometry relative="1" as="geometry" />
        </mxCell>
        <mxCell id="nwrU3dMbxeUqTlsf5lie-34" style="edgeStyle=orthogonalEdgeStyle;rounded=0;orthogonalLoop=1;jettySize=auto;html=1;entryX=0.5;entryY=0;entryDx=0;entryDy=0;" edge="1" parent="1" source="nwrU3dMbxeUqTlsf5lie-27" target="nwrU3dMbxeUqTlsf5lie-32">
          <mxGeometry relative="1" as="geometry">
            <Array as="points">
              <mxPoint x="290" y="590" />
              <mxPoint x="530" y="590" />
              <mxPoint x="530" y="40" />
              <mxPoint x="580" y="40" />
            </Array>
          </mxGeometry>
        </mxCell>
        <mxCell id="nwrU3dMbxeUqTlsf5lie-35" value="NO" style="edgeLabel;html=1;align=center;verticalAlign=middle;resizable=0;points=[];" vertex="1" connectable="0" parent="nwrU3dMbxeUqTlsf5lie-34">
          <mxGeometry x="-0.9005" y="3" relative="1" as="geometry">
            <mxPoint as="offset" />
          </mxGeometry>
        </mxCell>
        <mxCell id="nwrU3dMbxeUqTlsf5lie-27" value="ELSE IF truck coins &amp;gt;= 750" style="rhombus;whiteSpace=wrap;html=1;rounded=0;" vertex="1" parent="1">
          <mxGeometry x="250" y="490" width="80" height="80" as="geometry" />
        </mxCell>
        <mxCell id="nwrU3dMbxeUqTlsf5lie-29" value="set anim trigger for 750" style="whiteSpace=wrap;html=1;rounded=0;" vertex="1" parent="1">
          <mxGeometry x="390" y="500" width="120" height="60" as="geometry" />
        </mxCell>
        <mxCell id="nwrU3dMbxeUqTlsf5lie-31" value="YES" style="edgeStyle=orthogonalEdgeStyle;rounded=0;orthogonalLoop=1;jettySize=auto;html=1;" edge="1" parent="1" source="nwrU3dMbxeUqTlsf5lie-32" target="nwrU3dMbxeUqTlsf5lie-33">
          <mxGeometry relative="1" as="geometry" />
        </mxCell>
        <mxCell id="nwrU3dMbxeUqTlsf5lie-39" value="" style="edgeStyle=orthogonalEdgeStyle;rounded=0;orthogonalLoop=1;jettySize=auto;html=1;" edge="1" parent="1" source="nwrU3dMbxeUqTlsf5lie-32" target="nwrU3dMbxeUqTlsf5lie-37">
          <mxGeometry relative="1" as="geometry" />
        </mxCell>
        <mxCell id="nwrU3dMbxeUqTlsf5lie-32" value="ELSE IF truck coins &amp;gt;= 500" style="rhombus;whiteSpace=wrap;html=1;rounded=0;" vertex="1" parent="1">
          <mxGeometry x="540" y="60" width="80" height="80" as="geometry" />
        </mxCell>
        <mxCell id="nwrU3dMbxeUqTlsf5lie-33" value="set anim trigger for 500" style="whiteSpace=wrap;html=1;rounded=0;" vertex="1" parent="1">
          <mxGeometry x="680" y="70" width="120" height="60" as="geometry" />
        </mxCell>
        <mxCell id="nwrU3dMbxeUqTlsf5lie-36" value="YES" style="edgeStyle=orthogonalEdgeStyle;rounded=0;orthogonalLoop=1;jettySize=auto;html=1;" edge="1" parent="1" source="nwrU3dMbxeUqTlsf5lie-37" target="nwrU3dMbxeUqTlsf5lie-38">
          <mxGeometry relative="1" as="geometry" />
        </mxCell>
        <mxCell id="nwrU3dMbxeUqTlsf5lie-37" value="ELSE IF truck coins &amp;gt;= 250" style="rhombus;whiteSpace=wrap;html=1;rounded=0;" vertex="1" parent="1">
          <mxGeometry x="540" y="180" width="80" height="80" as="geometry" />
        </mxCell>
        <mxCell id="nwrU3dMbxeUqTlsf5lie-41" value="" style="edgeStyle=orthogonalEdgeStyle;rounded=0;orthogonalLoop=1;jettySize=auto;html=1;" edge="1" parent="1" source="nwrU3dMbxeUqTlsf5lie-38" target="nwrU3dMbxeUqTlsf5lie-40">
          <mxGeometry relative="1" as="geometry" />
        </mxCell>
        <mxCell id="nwrU3dMbxeUqTlsf5lie-38" value="set anim trigger for 250" style="whiteSpace=wrap;html=1;rounded=0;" vertex="1" parent="1">
          <mxGeometry x="690" y="190" width="120" height="60" as="geometry" />
        </mxCell>
        <mxCell id="nwrU3dMbxeUqTlsf5lie-43" value="" style="edgeStyle=orthogonalEdgeStyle;rounded=0;orthogonalLoop=1;jettySize=auto;html=1;" edge="1" parent="1" source="nwrU3dMbxeUqTlsf5lie-40" target="nwrU3dMbxeUqTlsf5lie-42">
          <mxGeometry relative="1" as="geometry" />
        </mxCell>
        <mxCell id="nwrU3dMbxeUqTlsf5lie-40" value="IF anim trigger not undefind" style="rhombus;whiteSpace=wrap;html=1;rounded=0;" vertex="1" parent="1">
          <mxGeometry x="660" y="300" width="80" height="80" as="geometry" />
        </mxCell>
        <mxCell id="nwrU3dMbxeUqTlsf5lie-45" value="" style="edgeStyle=orthogonalEdgeStyle;rounded=0;orthogonalLoop=1;jettySize=auto;html=1;" edge="1" parent="1" source="nwrU3dMbxeUqTlsf5lie-42" target="nwrU3dMbxeUqTlsf5lie-44">
          <mxGeometry relative="1" as="geometry" />
        </mxCell>
        <mxCell id="nwrU3dMbxeUqTlsf5lie-42" value="construct the truck anim request" style="whiteSpace=wrap;html=1;rounded=0;" vertex="1" parent="1">
          <mxGeometry x="570" y="420" width="120" height="60" as="geometry" />
        </mxCell>
        <mxCell id="nwrU3dMbxeUqTlsf5lie-47" value="" style="edgeStyle=orthogonalEdgeStyle;rounded=0;orthogonalLoop=1;jettySize=auto;html=1;" edge="1" parent="1" source="nwrU3dMbxeUqTlsf5lie-44" target="nwrU3dMbxeUqTlsf5lie-46">
          <mxGeometry relative="1" as="geometry" />
        </mxCell>
        <mxCell id="nwrU3dMbxeUqTlsf5lie-44" value="call&amp;nbsp;setAnimation" style="rounded=1;whiteSpace=wrap;html=1;fillColor=#f8cecc;gradientColor=#ea6b66;strokeColor=#b85450;" vertex="1" parent="1">
          <mxGeometry x="570" y="510" width="120" height="60" as="geometry" />
        </mxCell>
        <mxCell id="nwrU3dMbxeUqTlsf5lie-46" value="end" style="ellipse;whiteSpace=wrap;html=1;" vertex="1" parent="1">
          <mxGeometry x="730" y="520" width="80" height="40" as="geometry" />
        </mxCell>
      </root>
    </mxGraphModel>
  </diagram>
</mxfile>
